<svg width="540" height="612" viewBox="0 0 540 612" fill="none" xmlns="http://www.w3.org/2000/svg">
<rect width="311.614" height="292.521" rx="15" transform="matrix(0.965932 0.258798 -0.25884 0.96592 179.938 89.3967)" fill="#686767"/>
<rect width="311.614" height="6.35914" transform="matrix(0.965932 0.258798 -0.25884 0.96592 159.361 166.175)" fill="#595959"/>
<rect width="311.614" height="6.35914" transform="matrix(0.965931 0.258798 -0.25884 0.96592 151.132 196.887)" fill="#595959"/>
<rect width="60.4149" height="162.158" rx="10" transform="matrix(0.937179 -0.348848 0.348807 0.937194 337.509 282.902)" fill="#D6D6D6"/>
<ellipse cx="20.6683" cy="20.6672" rx="20.6683" ry="20.6672" transform="matrix(0.937179 -0.348849 0.348807 0.937194 402.728 394.333)" fill="url(#paint0_radial_228_403)"/>
<rect width="60.4149" height="162.158" rx="10" transform="matrix(-0.579486 -0.814982 -0.814957 0.579521 226.192 256.821)" fill="#D6D6D6"/>
<ellipse cx="20.6683" cy="20.6672" rx="20.6683" ry="20.6672" transform="matrix(-0.579485 -0.814982 -0.814957 0.579521 111.552 312.22)" fill="url(#paint1_radial_228_403)"/>
<path d="M326.405 426.555L169.764 384.587L131.202 528.488C129.772 533.823 132.938 539.306 138.273 540.735L178.847 551.606C184.181 553.035 189.665 549.869 191.094 544.535L212.665 464.039C214.095 458.704 219.578 455.538 224.913 456.968L240.148 461.049C245.482 462.479 248.648 467.962 247.218 473.297L225.648 553.793C224.218 559.127 227.384 564.61 232.719 566.04L275.596 577.528C280.931 578.957 286.414 575.791 287.844 570.456L326.405 426.555Z" fill="#D6D6D6"/>
<rect width="206.683" height="200.313" transform="matrix(0.965932 0.258798 -0.25884 0.96592 198.467 191.482)" fill="#E1E1E1"/>
<rect width="193.964" height="57.2323" transform="matrix(0.965932 0.258798 -0.25884 0.96592 160.991 355.903)" fill="#E1E1E1"/>
<rect width="15.8987" height="200.313" transform="matrix(0.965931 0.258798 -0.25884 0.96592 229.181 199.712)" fill="black"/>
<rect width="15.8987" height="200.313" transform="matrix(0.965932 0.258797 -0.258841 0.96592 345.894 230.983)" fill="black"/>
<rect width="206.683" height="6.35914" transform="matrix(0.965932 0.258798 -0.25884 0.96592 148.263 378.827)" fill="#9A9A9A"/>
<rect width="22.2582" height="50.8732" rx="11.1291" transform="matrix(0.965932 0.258797 -0.258841 0.96592 418.683 168.19)" fill="#D6D6D6"/>
<rect width="22.2581" height="50.8732" rx="11.1291" transform="matrix(0.965931 0.258798 -0.25884 0.96592 197.541 108.942)" fill="#D6D6D6"/>
<path d="M421.072 195.166C404.745 256.095 342.113 292.253 281.18 275.928C220.246 259.602 184.086 196.975 200.414 136.046C216.741 75.1164 279.373 38.958 340.306 55.2835C401.239 71.6091 437.399 134.236 421.072 195.166Z" fill="#D6D6D6" stroke="#E1E1E1" stroke-width="0.5"/>
<path fill-rule="evenodd" clip-rule="evenodd" d="M420.32 198.262C401.533 255.61 340.94 288.906 281.936 273.098C222.929 257.289 187.103 198.153 199.517 139.092C198.86 141.097 198.254 143.132 197.701 145.195C181.338 206.257 217.577 269.022 278.644 285.383C339.71 301.744 402.479 265.507 418.842 204.444C419.394 202.385 419.886 200.323 420.32 198.262Z" fill="#DDDDDD"/>
<path fill-rule="evenodd" clip-rule="evenodd" d="M417.031 210.546C398.244 267.894 337.651 301.19 278.647 285.382C219.641 269.572 183.815 210.437 196.228 151.376C195.571 153.381 194.965 155.416 194.412 157.479C178.049 218.541 214.288 281.306 275.355 297.667C336.421 314.028 399.19 277.79 415.553 216.728C416.105 214.668 416.597 212.607 417.031 210.546Z" fill="#D6D6D6"/>
<path d="M419.653 155.284C389.792 119.303 287.723 88.6647 230.571 93.103C200.921 136.181 194.937 188.116 228.666 229.199C247.394 252.011 265.57 260.091 294.37 266.553C315.678 271.334 329.33 272.857 350.288 266.722C399.487 252.321 422.996 185.805 419.653 155.284Z" fill="black"/>
<rect width="85.8528" height="44.514" rx="5" transform="matrix(0.965931 0.258798 -0.25884 0.96592 227.417 304.574)" fill="black"/>
<path d="M277.984 324.706L258.588 333.91L271.388 335.282L245.183 348.834" stroke="white"/>
<defs>
<radialGradient id="paint0_radial_228_403" cx="0" cy="0" r="1" gradientUnits="userSpaceOnUse" gradientTransform="translate(25.4379 25.4366) rotate(-156.802) scale(12.108 12.1075)">
<stop stop-color="white"/>
<stop offset="1" stop-color="#DDDDDD"/>
</radialGradient>
<radialGradient id="paint1_radial_228_403" cx="0" cy="0" r="1" gradientUnits="userSpaceOnUse" gradientTransform="translate(25.4379 25.4366) rotate(-156.802) scale(12.108 12.1075)">
<stop stop-color="white"/>
<stop offset="1" stop-color="#DDDDDD"/>
</radialGradient>
</defs>
</svg>
