<svg width="50" height="50" viewBox="0 0 50 50" fill="none" xmlns="http://www.w3.org/2000/svg">
<circle cx="25" cy="25" r="25" fill="white"/>
<path d="M9 40C9 40 16.3228 30.0347 15.5861 25.36C14.8495 20.6852 10.0086 10 10.0086 10L18.1398 12.8144C18.1398 12.8144 20.4182 24.199 21.7862 24.949C23.1543 25.699 28.153 23.5099 29.5737 23.1708C30.9944 22.8318 32.8676 12.8144 32.8676 12.8144L39.5801 14.572C39.5801 14.572 38.0752 18.9899 36.7913 25.925C35.5074 32.8601 44 33.6307 44 33.6307L32.8676 40C32.8676 40 30.2052 27.5175 29.5737 28.2367C28.9423 28.9559 23.2069 30.5477 21.7862 29.5203C20.3655 28.4929 16.9542 37.4322 16.9542 37.4322L9 40Z" fill="black"/>
</svg>
