<svg width="417" height="126" viewBox="0 0 417 126" fill="none" xmlns="http://www.w3.org/2000/svg">
<path d="M18.4059 95.9824C18.4059 98.2883 16.7588 99.4412 13.4647 99.4412C8.27647 99.4412 4.73529 98.453 2.84118 96.4765C0.947059 94.4177 0 91 0 86.2235C0.0823525 78.8118 2.1 66.953 6.05294 50.6471C10.0882 34.3412 13.8765 22.2353 17.4176 14.3294C18.3235 12.2706 19.6 10.3353 21.2471 8.52355C22.8941 6.62943 25.0765 5.68237 27.7941 5.68237C28.9471 5.68237 29.8941 6.38237 30.6353 7.78237C31.4588 9.18237 31.8706 10.7883 31.8706 12.6C31.8706 14.4118 31.5412 17.1294 30.8824 20.753C30.2235 24.2941 29.4 28.3706 28.4118 32.9824C27.4235 37.5941 26.3118 42.5765 25.0765 47.9294C20.6294 68.2706 18.4059 84.2883 18.4059 95.9824Z" fill="white"/>
<path d="M86.1154 88.3235C79.6096 95.9824 71.786 99.8118 62.6449 99.8118C53.586 99.8118 46.7919 97.5059 42.2625 92.8941C37.7331 88.2 35.5096 82.3941 35.5919 75.4765C35.5096 65.6765 38.5978 57.2353 44.8566 50.153C51.1154 43.0706 59.3096 39.5294 69.439 39.5294C74.0507 39.5294 77.7566 40.1059 80.5566 41.2588C85.4154 43.2353 87.8449 45.0883 87.8449 46.8177C87.8449 48.1353 84.4272 48.8353 77.5919 48.9177C70.839 48.9177 65.1566 51.2647 60.5449 55.9588C56.0154 60.5706 53.7507 66.4177 53.7507 73.5C53.7507 77.2059 54.8213 80.3353 56.9625 82.8883C59.186 85.3588 62.2743 86.5941 66.2272 86.5941C70.2625 86.5941 73.5978 85.7706 76.2331 84.1236C70.386 80.1706 67.4625 74.4471 67.4625 66.953C67.3801 63 68.7802 59.4177 71.6625 56.2059C74.6272 52.9118 78.3743 51.2647 82.9037 51.2647C87.5154 51.1824 90.8096 52.4177 92.786 54.9706C94.7625 57.5235 95.7507 60.8177 95.7507 64.853C95.7507 68.8059 94.8037 73.0059 92.9096 77.453H93.6507C97.2743 77.3706 100.404 76.0941 103.039 73.6236C104.027 72.6353 104.851 71.7706 105.51 71.0294C106.251 70.2883 106.992 69.9177 107.733 69.9177C108.886 69.9177 109.463 71.2765 109.463 73.9941C109.463 79.0177 107.98 82.8059 105.015 85.3588C102.051 87.8294 98.7566 89.0647 95.1331 89.0647C91.5919 89.0647 88.586 88.8177 86.1154 88.3235ZM85.0037 73.9941C86.4037 71.0294 87.1037 68.1471 87.1037 65.3471C87.1037 62.5471 86.1978 61.1471 84.386 61.1471C83.6449 61.1471 83.0272 61.6824 82.5331 62.753C82.039 63.8235 81.7919 64.853 81.7919 65.8412C81.7919 69.1353 82.8625 71.853 85.0037 73.9941Z" fill="white"/>
<path d="M119.712 37.1824C122.676 37.1824 125.476 40.0236 128.112 45.7059C131.982 41.6706 136.759 39.653 142.441 39.653C148.206 39.653 152.529 40.9294 155.412 43.4824C158.294 45.953 159.735 49.4941 159.735 54.1059C159.735 58.6353 159.117 63.2471 157.882 67.9412C156.729 72.6353 155.865 76.0118 155.288 78.0706C154.794 80.0471 154.547 81.6941 154.547 83.0118C154.547 84.3294 155 84.9883 155.906 84.9883C157.141 84.9883 158.665 84.2059 160.476 82.6412C162.288 81.0765 164.1 79.3883 165.912 77.5765C167.723 75.6824 169.37 73.953 170.853 72.3883C172.417 70.8235 173.488 70.0412 174.065 70.0412C175.217 70.0412 175.794 71.4412 175.794 74.2412C175.794 80.0059 172.953 85.5647 167.27 90.9177C157.717 96.5177 151.623 99.3177 148.988 99.3177C148.741 99.3177 148.576 99.2765 148.494 99.1941C141.906 99.1941 138.612 93.9236 138.612 83.3824C138.612 78.853 139.023 74.6941 139.847 70.9059C140.753 67.1177 141.412 64.3588 141.823 62.6294C142.235 60.9 142.441 59.1294 142.441 57.3177C142.441 54.353 140.712 52.8706 137.253 52.8706C133.876 52.8706 130.623 55.4235 127.494 60.5294C124.447 65.553 122.388 70.7824 121.317 76.2177V77.0824C121.317 79.8824 121.729 82.7647 122.553 85.7294C123.459 88.6941 123.912 90.753 123.912 91.9059C123.912 94.7059 120.412 97.4647 113.412 100.182C112.341 100.594 111.394 100.8 110.57 100.8C108.512 100.8 107.07 99.7294 106.247 97.5883C105.506 95.4471 105.135 92.1118 105.135 87.5824C105.135 75.8883 105.588 67.4471 106.494 62.2588C107.729 54.5177 110.529 47.3118 114.894 40.6412C116.376 38.3353 117.982 37.1824 119.712 37.1824Z" fill="white"/>
<path d="M208.049 46.6941C208.049 41.1765 212.331 38.4177 220.896 38.4177C223.037 38.4177 224.354 39.1177 224.849 40.5177C225.425 41.9177 225.713 44.0588 225.713 46.9412C225.713 50.9765 224.807 57.2353 222.996 65.7177C221.184 74.2 220.319 79.9235 220.402 82.8883C220.402 84.2883 220.854 84.9883 221.76 84.9883C222.996 84.9883 224.519 84.2059 226.331 82.6412C228.143 81.0765 229.954 79.3883 231.766 77.5765C233.578 75.6824 235.225 73.953 236.707 72.3883C238.272 70.8235 239.343 70.0412 239.919 70.0412C241.072 70.0412 241.649 71.4412 241.649 74.2412C241.649 80.0059 238.807 85.5647 233.125 90.9177C223.572 96.5177 217.519 99.3177 214.966 99.3177C214.719 99.3177 214.513 99.2765 214.349 99.1941C211.219 99.1941 208.996 98.1647 207.678 96.1059C206.443 94.0471 205.66 91.453 205.331 88.3235C203.684 91.3706 201.419 94.0059 198.537 96.2294C195.654 98.3706 192.36 99.4412 188.654 99.4412C182.149 99.4412 177.125 98.2059 173.584 95.7353C170.125 93.2647 168.396 89.6 168.396 84.7412C168.396 82.6 168.684 80.6236 169.26 78.8118C169.919 77 170.949 74.7765 172.349 72.1412L175.931 41.753C178.484 39.7765 182.149 38.7882 186.925 38.7882C190.713 38.7882 192.854 41.2588 193.349 46.2C193.76 50.2353 193.555 53.8588 192.731 57.0706C191.99 60.2 190.96 64.1941 189.643 69.053C188.325 73.8294 187.666 78.0706 187.666 81.7765C187.666 84.7412 189.519 86.2235 193.225 86.2235C197.26 86.2235 200.76 82.6824 203.725 75.6C206.031 70.1647 207.596 64.1118 208.419 57.4412C208.337 56.7824 208.255 55.9588 208.172 54.9706C208.172 53.9 208.131 52.8706 208.049 51.8824C208.049 50.8941 208.049 49.9059 208.049 48.9177V46.6941Z" fill="white"/>
<path d="M240.933 92.153C240.027 89.9294 239.368 87.3765 238.956 84.4941C238.544 81.5294 238.338 77.4118 238.338 72.1412C238.338 66.8706 239.327 59.7471 241.303 50.7706H235.744C234.756 50.7706 234.262 50.3588 234.262 49.5353C234.262 47.5588 234.427 45.953 234.756 44.7177C235.168 43.4 236.074 41.9177 237.474 40.2706H240.438C241.591 40.2706 242.827 40.2294 244.144 40.1471C248.097 27.4647 252.133 21.1235 256.25 21.1235C259.544 21.2059 261.85 23.3059 263.168 27.4235C263.497 28.5765 263.868 29.8118 264.28 31.1294L259.215 40.0235C264.98 40.1883 268.603 40.2706 270.085 40.2706C271.65 40.2706 272.474 40.4353 272.556 40.7647C272.721 41.0118 272.803 41.4235 272.803 42C272.803 43.4824 272.433 45.3353 271.691 47.5588C271.033 49.7824 270.25 50.853 269.344 50.7706L256.991 50.153C255.262 60.2 254.397 68.5177 254.397 75.1059C254.397 81.6941 255.344 84.9883 257.238 84.9883C258.803 84.9883 261.644 83.7118 265.762 81.1588C269.88 78.5235 272.844 76.0118 274.656 73.6236C276.468 71.2353 277.95 70.0412 279.103 70.0412C280.256 70.0412 280.833 71.4412 280.833 74.2412C280.833 77.0412 279.844 79.9235 277.868 82.8883C275.891 85.7706 273.38 88.4471 270.333 90.9177C267.368 93.3059 264.033 95.2824 260.327 96.8471C256.703 98.4118 253.533 99.1941 250.815 99.1941C248.097 99.1941 245.997 98.5765 244.515 97.3412C243.115 96.0236 241.921 94.2941 240.933 92.153Z" fill="white"/>
<path d="M271.147 126C271.147 126 301.644 84.1458 298.576 64.5118C295.508 44.8778 275.347 0 275.347 0L309.212 11.8206C309.212 11.8206 318.7 59.6356 324.398 62.7857C330.096 65.9359 350.914 56.7415 356.831 55.3175C362.747 53.8934 370.549 11.8206 370.549 11.8206L398.504 19.2025C398.504 19.2025 392.237 37.7577 386.89 66.8851C381.543 96.0126 416.912 99.2489 416.912 99.2489L370.549 126C370.549 126 359.46 73.5737 356.831 76.5943C354.201 79.6149 330.315 86.3005 324.398 81.9853C318.481 77.6701 304.274 115.215 304.274 115.215L271.147 126Z" fill="white"/>
</svg>
